<svg xmlns="http://www.w3.org/2000/svg" viewBox="0 0 700 300" font-family="'Segoe UI','Helvetica Neue',Arial,sans-serif">
  <rect width="700" height="300" fill="white"/>

  <!-- Title -->
  <text x="24" y="32" font-size="16" font-weight="700" fill="#1a1a2e">Messidor-2 — Class Distribution</text>
  <text x="24" y="50" font-size="11" fill="#999">n = 1,744 gradable images · Topcon TRC NW6 · 45° FOV · Degradation target (Exp 5)</text>

  <line x1="24" y1="62" x2="676" y2="62" stroke="#E0E0E0" stroke-width="1"/>

  <!-- DR 0 — 58.3% -->
  <text x="110" y="96" text-anchor="end" font-size="11" fill="#1a1a2e" font-weight="600">DR 0</text>
  <text x="110" y="108" text-anchor="end" font-size="9" fill="#999">No DR</text>
  <rect x="120" y="84" width="292" height="28" rx="3" fill="#2E7D32" opacity="0.82"/>
  <text x="130" y="103" font-size="11" fill="white" font-weight="600">58.3%</text>
  <text x="422" y="103" font-size="10" fill="#666">1,017</text>

  <!-- DR 1 — 15.5% -->
  <text x="110" y="138" text-anchor="end" font-size="11" fill="#1a1a2e" font-weight="600">DR 1</text>
  <text x="110" y="150" text-anchor="end" font-size="9" fill="#999">Mild</text>
  <rect x="120" y="126" width="78" height="28" rx="3" fill="#F9A825" opacity="0.82"/>
  <text x="130" y="145" font-size="11" fill="#444" font-weight="600">15.5%</text>
  <text x="208" y="145" font-size="10" fill="#666">270</text>

  <!-- DR 2 — 19.9% -->
  <text x="110" y="180" text-anchor="end" font-size="11" fill="#1a1a2e" font-weight="600">DR 2</text>
  <text x="110" y="192" text-anchor="end" font-size="9" fill="#999">Moderate</text>
  <rect x="120" y="168" width="100" height="28" rx="3" fill="#EF6C00" opacity="0.82"/>
  <text x="130" y="187" font-size="11" fill="white" font-weight="600">19.9%</text>
  <text x="230" y="187" font-size="10" fill="#666">347</text>

  <!-- DR 3 — 4.3% -->
  <text x="110" y="222" text-anchor="end" font-size="11" fill="#1a1a2e" font-weight="600">DR 3</text>
  <text x="110" y="234" text-anchor="end" font-size="9" fill="#999">Severe</text>
  <rect x="120" y="210" width="22" height="28" rx="3" fill="#D32F2F" opacity="0.82"/>
  <text x="150" y="229" font-size="10" fill="#666" font-weight="600">4.3%</text>
  <text x="192" y="229" font-size="10" fill="#888">75</text>

  <!-- DR 4 — 2.0% -->
  <text x="110" y="264" text-anchor="end" font-size="11" fill="#1a1a2e" font-weight="600">DR 4</text>
  <text x="110" y="276" text-anchor="end" font-size="9" fill="#999">PDR</text>
  <rect x="120" y="252" width="10" height="28" rx="3" fill="#6A1B9A" opacity="0.82"/>
  <text x="138" y="271" font-size="10" fill="#666" font-weight="600">2.0%</text>
  <text x="180" y="271" font-size="10" fill="#888">35</text>

  <text x="24" y="296" font-size="10" fill="#7F77DD" font-weight="600">5-class grading from adjudicated_dr_grade (4 ungradable images excluded). French population, 3 ophthalmology centres.</text>
</svg>
